<svg width="24" height="24" viewBox="0 0 24 24" fill="none" xmlns="http://www.w3.org/2000/svg">
<path d="M9.68356 6.47716C9.26947 6.48726 8.94197 6.83113 8.95207 7.24522C8.96217 7.65931 9.30605 7.98681 9.72014 7.97671L9.68356 6.47716ZM16.968 7.79994C17.3821 7.78984 17.7096 7.44596 17.6995 7.03187C17.6894 6.61778 17.3455 6.29028 16.9314 6.30038L16.968 7.79994ZM17.6995 7.06845C17.7096 6.65436 17.3821 6.31048 16.968 6.30038C16.5539 6.29028 16.21 6.61778 16.1999 7.03187L17.6995 7.06845ZM16.0231 14.2797C16.013 14.6938 16.3405 15.0377 16.7546 15.0478C17.1687 15.0579 17.5126 14.7304 17.5227 14.3163L16.0231 14.2797ZM17.48 7.58049C17.7729 7.2876 17.7729 6.81272 17.48 6.51983C17.1871 6.22694 16.7123 6.22694 16.4194 6.51983L17.48 7.58049ZM6.51987 16.4193C6.22698 16.7122 6.22698 17.1871 6.51987 17.48C6.81276 17.7729 7.28764 17.7729 7.58053 17.48L6.51987 16.4193ZM9.72014 7.97671L16.968 7.79994L16.9314 6.30038L9.68356 6.47716L9.72014 7.97671ZM16.1999 7.03187L16.0231 14.2797L17.5227 14.3163L17.6995 7.06845L16.1999 7.03187ZM16.4194 6.51983L6.51987 16.4193L7.58053 17.48L17.48 7.58049L16.4194 6.51983Z" fill="black"/>
</svg>
